<svg width="32" height="32" viewBox="0 0 32 32" fill="none" xmlns="http://www.w3.org/2000/svg">
<path d="M32.0381 16C32.0381 24.8366 24.8662 32 16.0191 32C7.17198 32 0 24.8366 0 16C0 7.16344 7.17198 0 16.0191 0C24.8662 0 32.0381 7.16344 32.0381 16Z" fill="#5B69C2"/>
<path fill-rule="evenodd" clip-rule="evenodd" d="M19.1303 8.9375C19.5602 8.9375 19.9168 9.04948 20.2152 9.28453C20.4998 9.50861 20.733 9.84876 20.9189 10.3286C21.326 11.3894 21.6541 12.455 21.896 13.4945C22.1936 14.7792 22.4533 16.0818 22.7053 17.346C22.8335 17.9892 22.9628 18.6321 23.0946 19.2745C23.1402 19.4995 23.2277 19.9044 23.3009 20.1087C23.406 20.3364 23.5372 20.4229 23.6367 20.4404C23.7941 20.4679 23.9138 20.3611 23.9528 20.3233C24.207 20.0437 24.1669 19.6192 24.2352 19.2729C24.3777 18.5294 24.5177 17.781 24.6554 17.0349L24.836 16.0625C24.8983 15.7305 25.0229 15.4976 25.2051 15.3452C25.3891 15.1913 25.6367 15.1141 25.9658 15.1226C26.2086 15.1271 26.4273 15.2388 26.5924 15.4067C26.7702 15.5874 26.8827 15.8317 26.8995 16.0601C26.9267 16.4432 26.8792 16.7795 26.7703 17.3056C26.6912 17.6941 26.6165 18.1018 26.5386 18.5091C26.3443 19.5222 26.1309 20.5491 25.7663 21.4203C25.534 21.9759 25.1536 22.4421 24.7276 22.7069C24.2229 23.0203 23.7371 23.1214 23.2932 23.0306C22.8495 22.94 22.441 22.6561 22.0967 22.1696C21.6377 21.5193 21.3177 20.7239 21.0711 19.5864C20.828 18.4765 20.5956 17.3469 20.3662 16.2317C20.3309 16.06 20.2956 15.8886 20.2603 15.7173C20.1014 14.9392 19.9295 14.163 19.78 13.3831C19.6276 12.6189 19.4983 12.107 19.3605 11.7872C19.3041 11.6561 19.249 11.561 19.1867 11.5004C19.0962 11.4123 18.9554 11.4322 18.8702 11.5194C18.805 11.5862 18.7478 11.6946 18.7033 11.8597C18.6491 12.0064 18.4508 12.8465 18.4159 13.0134C18.2727 13.7098 18.1367 14.4077 17.9984 15.1051C17.7906 16.1533 17.5871 17.1835 17.5871 17.1835C17.3019 18.6017 17.0065 20.0651 16.4824 21.4021C16.2769 21.9268 15.976 22.3449 15.6169 22.6292C15.2479 22.9212 14.8171 23.0739 14.3589 23.0598C13.7844 23.0487 13.2659 22.7463 12.9406 22.2247C12.6909 21.8242 12.3537 21.1987 12.1653 20.4881C11.8512 19.3037 11.5871 18.0742 11.3301 16.8779C11.2507 16.5012 11.1701 16.1318 11.0894 15.7627C10.9466 15.1124 10.8111 14.4621 10.673 13.7947C10.6444 13.6545 10.6015 13.4476 10.5587 13.229C10.484 12.8585 10.4197 12.4838 10.3274 12.117C10.2786 11.926 10.229 11.7212 10.112 11.5588C10.008 11.4145 9.86152 11.4139 9.74975 11.5511C9.63196 11.6956 9.57111 11.9067 9.53376 12.0275C9.45104 12.2447 9.09471 13.9667 9.03382 14.2986C8.91228 14.957 8.78601 15.6393 8.6431 16.3024C8.57423 16.6228 8.40121 16.8766 8.16106 17.0248C7.8982 17.1863 7.57741 17.2166 7.25542 17.1009C7.04522 17.0267 6.86377 16.8728 6.74078 16.6786C6.61838 16.4852 6.55479 16.2534 6.57356 16.0273C6.62402 15.4085 6.73193 14.7415 6.92663 13.8662C7.24154 12.4391 7.61243 11.3121 8.09077 10.3191C8.29252 9.87952 8.57729 9.5908 8.86694 9.40033C9.40936 9.04364 9.9717 9.03419 10.0528 9.03457C10.3967 9.04782 10.7587 9.15157 11.0775 9.39462C11.3381 9.59333 11.5714 9.88586 11.735 10.3036C12.1399 11.3363 12.4681 12.3881 12.7101 13.428C13.0203 14.7623 13.2845 16.1062 13.5538 17.4491C13.6737 18.0471 13.7937 18.6452 13.916 19.2434C13.99 19.5911 14.0769 20.0949 14.3319 20.3483C14.5596 20.5745 14.7569 20.2848 14.8394 20.0858C14.9936 19.7163 15.0387 19.2554 15.1183 18.8633C15.4549 17.1977 15.7567 15.5253 16.1171 13.8645C16.401 12.5554 16.6799 11.3887 17.2094 10.3465C17.425 9.92178 17.6761 9.54415 18.0198 9.28816C18.3115 9.07082 18.6692 8.9375 19.1303 8.9375Z" fill="white"/>
<path fill-rule="evenodd" clip-rule="evenodd" d="M6.36664 20.1875C6.80241 20.1875 7.19114 20.3635 7.47439 20.6456C7.76152 20.9315 7.93994 21.3266 7.94687 21.7568C7.95389 22.1557 7.78929 22.5543 7.50628 22.858C7.21875 23.171 6.82469 23.3649 6.41412 23.374C5.97112 23.3907 5.57615 23.1942 5.2823 22.8938C4.9879 22.5926 4.81836 22.1879 4.81836 21.7797C4.82007 21.3458 4.99322 20.9485 5.27389 20.6594C5.55297 20.3718 5.93797 20.1911 6.36664 20.1875Z" fill="white"/>
</svg>
